<?xml version="1.0" encoding="utf-8"?>
  <!DOCTYPE svg PUBLIC "-//W3C//DTD SVG 1.1//EN" "http://www.w3.org/Graphics/SVG/1.1/DTD/svg11.dtd">
  <svg version="1.1" xmlns="http://www.w3.org/2000/svg" xmlns:xlink="http://www.w3.org/1999/xlink" x="0px" y="0px" width="64px" height="64px" viewBox="0 0 64 64" enable-background="new 0 0 64 64" xml:space="preserve"><rect x="0" y="0" width="64" height="64" rx="4" ry="4" fill="none"></rect><g transform="translate(0, 0)"><polygon data-color="color-2" fill="#ffffff" points="42,2.6 42,16 55.4,16 "></polygon>
<path fill="#ff9100" d="M57,29V18H41c-0.6,0-1-0.4-1-1V1H8C7.4,1,7,1.4,7,2v27H57z"></path>
<path fill="#ff9100" d="M7,56v6c0,0.6,0.4,1,1,1h48c0.6,0,1-0.4,1-1v-6H7z"></path>
<path data-color="color-2" fill="#ffffff" d="M61,31H3c-0.6,0-1,0.4-1,1v21c0,0.6,0.4,1,1,1h58c0.6,0,1-0.4,1-1V32C62,31.4,61.6,31,61,31
	z M24.9,45.5c0.7,0,1.4-0.2,2.4-0.5v1.7c-0.8,0.3-1.6,0.5-2.6,0.5c-1.4,0-2.4-0.4-3.1-1.2c-0.7-0.8-1.1-2-1.1-3.5
	c0-1,0.2-1.8,0.5-2.5s0.9-1.3,1.5-1.7c0.7-0.4,1.4-0.6,2.3-0.6c0.9,0,1.8,0.2,2.7,0.7L27,39.8c-0.3-0.2-0.7-0.3-1-0.4
	s-0.7-0.2-1-0.2c-0.7,0-1.3,0.3-1.7,0.8s-0.6,1.3-0.6,2.3C22.6,44.5,23.4,45.5,24.9,45.5z M34.1,46.4c-0.6,0.5-1.4,0.7-2.5,0.7
	c-1,0-1.9-0.2-2.6-0.6v-1.8c0.6,0.3,1.2,0.5,1.6,0.6c0.4,0.1,0.8,0.2,1.2,0.2c0.4,0,0.8-0.1,1-0.2c0.2-0.2,0.3-0.4,0.3-0.7
	c0-0.2-0.1-0.3-0.2-0.5s-0.3-0.3-0.4-0.4c-0.2-0.1-0.6-0.3-1.2-0.6c-0.6-0.3-1-0.5-1.3-0.8s-0.5-0.5-0.7-0.9
	C29.1,41,29,40.7,29,40.2c0-0.8,0.3-1.5,0.8-1.9c0.6-0.5,1.3-0.7,2.3-0.7c0.5,0,0.9,0.1,1.4,0.2c0.4,0.1,0.9,0.3,1.4,0.5l-0.6,1.5
	c-0.5-0.2-0.9-0.3-1.2-0.4c-0.3-0.1-0.6-0.1-1-0.1c-0.4,0-0.7,0.1-0.9,0.3S31,39.9,31,40.2c0,0.2,0,0.3,0.1,0.5s0.2,0.3,0.4,0.4
	c0.2,0.1,0.6,0.3,1.2,0.7c0.9,0.4,1.5,0.8,1.8,1.2s0.5,0.9,0.5,1.5C35,45.3,34.7,45.9,34.1,46.4z M41.1,47h-2.1l-3.1-9.3h2l1.7,5.5
	c0.1,0.3,0.2,0.7,0.3,1.1c0.1,0.4,0.2,0.7,0.2,0.9c0-0.4,0.2-1.1,0.5-2l1.8-5.5h2L41.1,47z"></path></g></svg>